<mxfile host="Electron" modified="2024-06-19T11:09:55.708Z" agent="Mozilla/5.0 (Windows NT 10.0; Win64; x64) AppleWebKit/537.36 (KHTML, like Gecko) draw.io/24.2.5 Chrome/120.0.6099.109 Electron/28.1.0 Safari/537.36" etag="JDLLHXS8R4PT8lNsTHAt" version="24.2.5" type="device">
  <diagram name="Page-1" id="_XK44H8leWg5fh9BsV82">
    <mxGraphModel dx="1727" dy="1170" grid="1" gridSize="10" guides="1" tooltips="1" connect="1" arrows="1" fold="1" page="1" pageScale="1" pageWidth="850" pageHeight="1100" math="0" shadow="0">
      <root>
        <mxCell id="0" />
        <mxCell id="1" parent="0" />
        <mxCell id="qHdgzyNY0UarlFCtfq09-21" style="edgeStyle=orthogonalEdgeStyle;rounded=0;orthogonalLoop=1;jettySize=auto;html=1;entryX=0.5;entryY=0;entryDx=0;entryDy=0;fillColor=#dae8fc;strokeColor=#6c8ebf;" edge="1" parent="1" source="qHdgzyNY0UarlFCtfq09-6" target="qHdgzyNY0UarlFCtfq09-11">
          <mxGeometry relative="1" as="geometry" />
        </mxCell>
        <mxCell id="qHdgzyNY0UarlFCtfq09-6" value="Open Application" style="rounded=1;arcSize=10;whiteSpace=wrap;html=1;align=center;fillColor=#dae8fc;gradientColor=#7ea6e0;strokeColor=#6c8ebf;" vertex="1" parent="1">
          <mxGeometry x="375" y="340" width="100" height="40" as="geometry" />
        </mxCell>
        <mxCell id="qHdgzyNY0UarlFCtfq09-11" value="&lt;span style=&quot;text-wrap: nowrap;&quot;&gt;Configuration API&lt;/span&gt;" style="swimlane;childLayout=stackLayout;horizontal=1;startSize=50;horizontalStack=0;rounded=1;fontSize=14;fontStyle=0;strokeWidth=2;resizeParent=0;resizeLast=1;shadow=0;dashed=0;align=center;arcSize=4;whiteSpace=wrap;html=1;fillColor=#eeeeee;strokeColor=#36393d;" vertex="1" parent="1">
          <mxGeometry x="323" y="440" width="205" height="120" as="geometry" />
        </mxCell>
        <mxCell id="qHdgzyNY0UarlFCtfq09-12" value="+ Auth Config&lt;br&gt;+ Admin Config&lt;br&gt;+ Site Config&lt;div&gt;+ Meta, Header and footer config&lt;/div&gt;" style="align=left;strokeColor=#666666;fillColor=#f5f5f5;spacingLeft=4;fontSize=12;verticalAlign=top;resizable=0;rotatable=0;part=1;html=1;fontColor=#333333;" vertex="1" parent="qHdgzyNY0UarlFCtfq09-11">
          <mxGeometry y="50" width="205" height="70" as="geometry" />
        </mxCell>
        <mxCell id="qHdgzyNY0UarlFCtfq09-38" style="edgeStyle=orthogonalEdgeStyle;rounded=1;orthogonalLoop=1;jettySize=auto;html=1;entryX=1;entryY=0.5;entryDx=0;entryDy=0;exitX=0.5;exitY=1;exitDx=0;exitDy=0;curved=0;fillColor=#dae8fc;strokeColor=#6c8ebf;" edge="1" parent="1" source="qHdgzyNY0UarlFCtfq09-15" target="qHdgzyNY0UarlFCtfq09-28">
          <mxGeometry relative="1" as="geometry" />
        </mxCell>
        <mxCell id="qHdgzyNY0UarlFCtfq09-15" value="Meta Config" style="rounded=1;arcSize=10;whiteSpace=wrap;html=1;align=center;fillColor=#fff2cc;strokeColor=#d6b656;" vertex="1" parent="1">
          <mxGeometry x="310" y="640" width="100" height="40" as="geometry" />
        </mxCell>
        <mxCell id="qHdgzyNY0UarlFCtfq09-30" value="" style="edgeStyle=orthogonalEdgeStyle;rounded=1;orthogonalLoop=1;jettySize=auto;html=1;curved=0;fillColor=#dae8fc;strokeColor=#6c8ebf;" edge="1" parent="1" source="qHdgzyNY0UarlFCtfq09-16" target="qHdgzyNY0UarlFCtfq09-28">
          <mxGeometry relative="1" as="geometry" />
        </mxCell>
        <mxCell id="qHdgzyNY0UarlFCtfq09-16" value="Footer&amp;nbsp;&lt;span style=&quot;background-color: initial;&quot;&gt;Config&lt;/span&gt;" style="rounded=1;arcSize=10;whiteSpace=wrap;html=1;align=center;fillColor=#ffe6cc;strokeColor=#d79b00;" vertex="1" parent="1">
          <mxGeometry x="180" y="640" width="100" height="40" as="geometry" />
        </mxCell>
        <mxCell id="qHdgzyNY0UarlFCtfq09-34" style="edgeStyle=orthogonalEdgeStyle;rounded=1;orthogonalLoop=1;jettySize=auto;html=1;exitX=0.5;exitY=1;exitDx=0;exitDy=0;curved=0;fillColor=#dae8fc;strokeColor=#6c8ebf;" edge="1" parent="1" source="qHdgzyNY0UarlFCtfq09-17" target="qHdgzyNY0UarlFCtfq09-29">
          <mxGeometry relative="1" as="geometry" />
        </mxCell>
        <mxCell id="qHdgzyNY0UarlFCtfq09-17" value="Auth Config" style="rounded=1;arcSize=10;whiteSpace=wrap;html=1;align=center;fillColor=#e1d5e7;strokeColor=#9673a6;" vertex="1" parent="1">
          <mxGeometry x="440" y="640" width="100" height="40" as="geometry" />
        </mxCell>
        <mxCell id="qHdgzyNY0UarlFCtfq09-33" value="" style="edgeStyle=orthogonalEdgeStyle;rounded=0;orthogonalLoop=1;jettySize=auto;html=1;" edge="1" parent="1" source="qHdgzyNY0UarlFCtfq09-18" target="qHdgzyNY0UarlFCtfq09-29">
          <mxGeometry relative="1" as="geometry" />
        </mxCell>
        <mxCell id="qHdgzyNY0UarlFCtfq09-18" value="Admin Config" style="rounded=1;arcSize=10;whiteSpace=wrap;html=1;align=center;fillColor=#f5f5f5;strokeColor=#666666;fontColor=#333333;" vertex="1" parent="1">
          <mxGeometry x="570" y="640" width="100" height="40" as="geometry" />
        </mxCell>
        <mxCell id="qHdgzyNY0UarlFCtfq09-31" style="edgeStyle=orthogonalEdgeStyle;rounded=1;orthogonalLoop=1;jettySize=auto;html=1;exitX=0.5;exitY=1;exitDx=0;exitDy=0;curved=0;fillColor=#dae8fc;strokeColor=#6c8ebf;" edge="1" parent="1" source="qHdgzyNY0UarlFCtfq09-19" target="qHdgzyNY0UarlFCtfq09-28">
          <mxGeometry relative="1" as="geometry" />
        </mxCell>
        <mxCell id="qHdgzyNY0UarlFCtfq09-19" value="Header Config" style="rounded=1;arcSize=10;whiteSpace=wrap;html=1;align=center;fillColor=#f8cecc;strokeColor=#b85450;" vertex="1" parent="1">
          <mxGeometry x="50" y="640" width="100" height="40" as="geometry" />
        </mxCell>
        <mxCell id="qHdgzyNY0UarlFCtfq09-35" style="edgeStyle=orthogonalEdgeStyle;rounded=1;orthogonalLoop=1;jettySize=auto;html=1;exitX=0.5;exitY=1;exitDx=0;exitDy=0;curved=0;fillColor=#dae8fc;strokeColor=#6c8ebf;" edge="1" parent="1" source="qHdgzyNY0UarlFCtfq09-20" target="qHdgzyNY0UarlFCtfq09-29">
          <mxGeometry relative="1" as="geometry" />
        </mxCell>
        <mxCell id="qHdgzyNY0UarlFCtfq09-20" value="Site Config" style="rounded=1;arcSize=10;whiteSpace=wrap;html=1;align=center;fillColor=#dae8fc;strokeColor=#6c8ebf;" vertex="1" parent="1">
          <mxGeometry x="700" y="640" width="100" height="40" as="geometry" />
        </mxCell>
        <mxCell id="qHdgzyNY0UarlFCtfq09-22" style="edgeStyle=orthogonalEdgeStyle;rounded=1;orthogonalLoop=1;jettySize=auto;html=1;entryX=0.5;entryY=0;entryDx=0;entryDy=0;curved=0;fillColor=#dae8fc;strokeColor=#6c8ebf;" edge="1" parent="1" source="qHdgzyNY0UarlFCtfq09-12" target="qHdgzyNY0UarlFCtfq09-17">
          <mxGeometry relative="1" as="geometry" />
        </mxCell>
        <mxCell id="qHdgzyNY0UarlFCtfq09-23" style="edgeStyle=orthogonalEdgeStyle;rounded=1;orthogonalLoop=1;jettySize=auto;html=1;entryX=0.5;entryY=0;entryDx=0;entryDy=0;curved=0;fillColor=#dae8fc;strokeColor=#6c8ebf;" edge="1" parent="1" source="qHdgzyNY0UarlFCtfq09-12" target="qHdgzyNY0UarlFCtfq09-15">
          <mxGeometry relative="1" as="geometry" />
        </mxCell>
        <mxCell id="qHdgzyNY0UarlFCtfq09-24" style="edgeStyle=orthogonalEdgeStyle;rounded=1;orthogonalLoop=1;jettySize=auto;html=1;entryX=0.5;entryY=0;entryDx=0;entryDy=0;curved=0;fillColor=#dae8fc;strokeColor=#6c8ebf;" edge="1" parent="1" target="qHdgzyNY0UarlFCtfq09-18">
          <mxGeometry relative="1" as="geometry">
            <mxPoint x="426" y="560" as="sourcePoint" />
            <Array as="points">
              <mxPoint x="426" y="600" />
              <mxPoint x="620" y="600" />
            </Array>
          </mxGeometry>
        </mxCell>
        <mxCell id="qHdgzyNY0UarlFCtfq09-25" style="edgeStyle=orthogonalEdgeStyle;rounded=1;orthogonalLoop=1;jettySize=auto;html=1;exitX=0.5;exitY=1;exitDx=0;exitDy=0;curved=0;fillColor=#dae8fc;strokeColor=#6c8ebf;" edge="1" parent="1" source="qHdgzyNY0UarlFCtfq09-12" target="qHdgzyNY0UarlFCtfq09-20">
          <mxGeometry relative="1" as="geometry" />
        </mxCell>
        <mxCell id="qHdgzyNY0UarlFCtfq09-26" style="edgeStyle=orthogonalEdgeStyle;rounded=1;orthogonalLoop=1;jettySize=auto;html=1;entryX=0.5;entryY=0;entryDx=0;entryDy=0;exitX=0.5;exitY=1;exitDx=0;exitDy=0;curved=0;fillColor=#dae8fc;strokeColor=#6c8ebf;" edge="1" parent="1" source="qHdgzyNY0UarlFCtfq09-12" target="qHdgzyNY0UarlFCtfq09-16">
          <mxGeometry relative="1" as="geometry" />
        </mxCell>
        <mxCell id="qHdgzyNY0UarlFCtfq09-27" style="edgeStyle=orthogonalEdgeStyle;rounded=1;orthogonalLoop=1;jettySize=auto;html=1;curved=0;fillColor=#dae8fc;strokeColor=#6c8ebf;" edge="1" parent="1" source="qHdgzyNY0UarlFCtfq09-12" target="qHdgzyNY0UarlFCtfq09-19">
          <mxGeometry relative="1" as="geometry">
            <Array as="points">
              <mxPoint x="426" y="600" />
              <mxPoint x="100" y="600" />
            </Array>
          </mxGeometry>
        </mxCell>
        <mxCell id="qHdgzyNY0UarlFCtfq09-41" value="" style="edgeStyle=orthogonalEdgeStyle;rounded=0;orthogonalLoop=1;jettySize=auto;html=1;fillColor=#dae8fc;strokeColor=#6c8ebf;" edge="1" parent="1" source="qHdgzyNY0UarlFCtfq09-28" target="qHdgzyNY0UarlFCtfq09-40">
          <mxGeometry relative="1" as="geometry" />
        </mxCell>
        <mxCell id="qHdgzyNY0UarlFCtfq09-28" value="Render Header/Footer Template" style="rounded=1;arcSize=10;whiteSpace=wrap;html=1;align=center;fillColor=#ffcc99;strokeColor=#36393d;" vertex="1" parent="1">
          <mxGeometry x="100" y="720" width="140" height="40" as="geometry" />
        </mxCell>
        <mxCell id="qHdgzyNY0UarlFCtfq09-46" value="" style="edgeStyle=orthogonalEdgeStyle;rounded=0;orthogonalLoop=1;jettySize=auto;html=1;fillColor=#dae8fc;strokeColor=#6c8ebf;" edge="1" parent="1" source="qHdgzyNY0UarlFCtfq09-29" target="qHdgzyNY0UarlFCtfq09-44">
          <mxGeometry relative="1" as="geometry" />
        </mxCell>
        <mxCell id="qHdgzyNY0UarlFCtfq09-29" value="Render Page Template" style="rounded=1;arcSize=10;whiteSpace=wrap;html=1;align=center;fillColor=#ffcc99;strokeColor=#36393d;" vertex="1" parent="1">
          <mxGeometry x="550" y="720" width="140" height="40" as="geometry" />
        </mxCell>
        <mxCell id="qHdgzyNY0UarlFCtfq09-39" style="edgeStyle=orthogonalEdgeStyle;rounded=1;orthogonalLoop=1;jettySize=auto;html=1;exitX=0.5;exitY=1;exitDx=0;exitDy=0;curved=0;fillColor=#dae8fc;strokeColor=#6c8ebf;" edge="1" parent="1" source="qHdgzyNY0UarlFCtfq09-15" target="qHdgzyNY0UarlFCtfq09-29">
          <mxGeometry relative="1" as="geometry">
            <Array as="points">
              <mxPoint x="360" y="740" />
            </Array>
          </mxGeometry>
        </mxCell>
        <mxCell id="qHdgzyNY0UarlFCtfq09-43" value="" style="edgeStyle=orthogonalEdgeStyle;rounded=0;orthogonalLoop=1;jettySize=auto;html=1;fillColor=#dae8fc;strokeColor=#6c8ebf;" edge="1" parent="1" source="qHdgzyNY0UarlFCtfq09-40" target="qHdgzyNY0UarlFCtfq09-42">
          <mxGeometry relative="1" as="geometry" />
        </mxCell>
        <mxCell id="qHdgzyNY0UarlFCtfq09-40" value="Call API" style="rounded=1;arcSize=10;whiteSpace=wrap;html=1;align=center;fillColor=#eeeeee;strokeColor=#36393d;" vertex="1" parent="1">
          <mxGeometry x="120" y="800" width="100" height="40" as="geometry" />
        </mxCell>
        <mxCell id="qHdgzyNY0UarlFCtfq09-42" value="Display Header/Footer" style="rounded=1;arcSize=10;whiteSpace=wrap;html=1;align=center;fillColor=#fff2cc;gradientColor=#ffd966;strokeColor=#d6b656;" vertex="1" parent="1">
          <mxGeometry x="100" y="880" width="140" height="40" as="geometry" />
        </mxCell>
        <mxCell id="qHdgzyNY0UarlFCtfq09-47" value="" style="edgeStyle=orthogonalEdgeStyle;rounded=0;orthogonalLoop=1;jettySize=auto;html=1;fillColor=#dae8fc;strokeColor=#6c8ebf;" edge="1" parent="1" source="qHdgzyNY0UarlFCtfq09-44" target="qHdgzyNY0UarlFCtfq09-45">
          <mxGeometry relative="1" as="geometry" />
        </mxCell>
        <mxCell id="qHdgzyNY0UarlFCtfq09-44" value="Call API" style="rounded=1;arcSize=10;whiteSpace=wrap;html=1;align=center;fillColor=#eeeeee;strokeColor=#36393d;" vertex="1" parent="1">
          <mxGeometry x="570" y="800" width="100" height="40" as="geometry" />
        </mxCell>
        <mxCell id="qHdgzyNY0UarlFCtfq09-45" value="Display Pages" style="rounded=1;arcSize=10;whiteSpace=wrap;html=1;align=center;fillColor=#fff2cc;gradientColor=#ffd966;strokeColor=#d6b656;" vertex="1" parent="1">
          <mxGeometry x="550" y="880" width="140" height="40" as="geometry" />
        </mxCell>
      </root>
    </mxGraphModel>
  </diagram>
</mxfile>
